<?xml version="1.0" encoding="utf-8"?>
<!-- Generator: Adobe Illustrator 19.0.1, SVG Export Plug-In . SVG Version: 6.00 Build 0)  -->
<svg version="1.1" id="Layer_1" xmlns="http://www.w3.org/2000/svg" xmlns:xlink="http://www.w3.org/1999/xlink" x="0px" y="0px"
	 viewBox="0 0 959 654" style="enable-background:new 0 0 959 654;" xml:space="preserve">
<style type="text/css">
	.st0{fill:url(#SVGID_1_);}
	.st1{fill:url(#SVGID_2_);}
	.st2{fill:url(#SVGID_3_);}
	.st3{fill:url(#SVGID_4_);}
	.st4{fill:url(#SVGID_5_);}
	.st5{fill:url(#SVGID_6_);}
	.st6{fill:url(#SVGID_7_);}
	.st7{fill:url(#SVGID_8_);}
	.st8{fill:url(#SVGID_9_);}
	.st9{fill:url(#SVGID_10_);}
	.st10{fill:url(#SVGID_11_);}
	.st11{fill:url(#SVGID_12_);}
	.st12{fill:url(#SVGID_13_);}
	.st13{fill:url(#SVGID_14_);}
	.st14{fill:url(#SVGID_15_);}
	.st15{fill:url(#SVGID_16_);}
	.st16{fill:url(#SVGID_17_);}
	.st17{fill:url(#SVGID_18_);}
	.st18{fill:url(#SVGID_19_);}
	.st19{fill:url(#SVGID_20_);}
	.st20{fill:url(#SVGID_21_);}
	.st21{fill:url(#SVGID_22_);}
	.st22{fill:url(#SVGID_23_);}
	.st23{fill:url(#SVGID_24_);}
	.st24{fill:url(#SVGID_25_);}
	.st25{fill:url(#SVGID_26_);}
	.st26{fill:url(#SVGID_27_);}
	.st27{fill:url(#SVGID_28_);}
	.st28{fill:url(#SVGID_29_);}
	.st29{fill:url(#SVGID_30_);}
	.st30{fill:url(#SVGID_31_);}
	.st31{fill:url(#SVGID_32_);}
	.st32{fill:url(#SVGID_33_);}
	.st33{fill:url(#SVGID_34_);}
	.st34{fill:url(#SVGID_35_);}
	.st35{fill:url(#SVGID_36_);}
	.st36{fill:url(#SVGID_37_);}
	.st37{fill:url(#SVGID_38_);}
	.st38{fill:url(#SVGID_39_);}
	.st39{fill:url(#SVGID_40_);}
	.st40{fill:url(#SVGID_41_);}
	.st41{fill:url(#SVGID_42_);}
	.st42{fill:url(#SVGID_43_);}
	.st43{fill:url(#SVGID_44_);}
	.st44{fill:url(#SVGID_45_);}
	.st45{fill:url(#SVGID_46_);}
	.st46{fill:url(#SVGID_47_);}
	.st47{fill:url(#SVGID_48_);}
	.st48{fill:url(#SVGID_49_);}
	.st49{fill:url(#SVGID_50_);}
	.st50{fill:url(#SVGID_51_);}
	.st51{fill:url(#SVGID_52_);}
	.st52{fill:url(#SVGID_53_);}
	.st53{fill:url(#SVGID_54_);}
	.st54{fill:url(#SVGID_55_);}
	.st55{fill:url(#SVGID_56_);}
	.st56{fill:#1C75BC;}
	.st57{fill:#BCBEC0;}
	.st58{fill:#6D6E71;}
</style>
<g>
	<radialGradient id="SVGID_1_" cx="419.5592" cy="167.7231" r="212.2342" gradientUnits="userSpaceOnUse">
		<stop  offset="0" style="stop-color:#00AEEF"/>
		<stop  offset="1" style="stop-color:#1C75BC"/>
	</radialGradient>
	<circle class="st0" cx="393.7" cy="142.6" r="5.4"/>
	<radialGradient id="SVGID_2_" cx="419.5592" cy="167.7231" r="212.2337" gradientUnits="userSpaceOnUse">
		<stop  offset="0" style="stop-color:#00AEEF"/>
		<stop  offset="1" style="stop-color:#1C75BC"/>
	</radialGradient>
	<circle class="st1" cx="400.7" cy="131.5" r="2.5"/>
	<radialGradient id="SVGID_3_" cx="419.5592" cy="167.7231" r="212.2342" gradientUnits="userSpaceOnUse">
		<stop  offset="0" style="stop-color:#00AEEF"/>
		<stop  offset="1" style="stop-color:#1C75BC"/>
	</radialGradient>
	<circle class="st2" cx="391" cy="173.4" r="5.4"/>
	<radialGradient id="SVGID_4_" cx="419.5592" cy="167.7231" r="212.2342" gradientUnits="userSpaceOnUse">
		<stop  offset="0" style="stop-color:#00AEEF"/>
		<stop  offset="1" style="stop-color:#1C75BC"/>
	</radialGradient>
	<circle class="st3" cx="391" cy="198.4" r="9.4"/>
	<radialGradient id="SVGID_5_" cx="419.5592" cy="167.7231" r="212.2342" gradientUnits="userSpaceOnUse">
		<stop  offset="0" style="stop-color:#00AEEF"/>
		<stop  offset="1" style="stop-color:#1C75BC"/>
	</radialGradient>
	<circle class="st4" cx="391" cy="223.4" r="5.4"/>
	<radialGradient id="SVGID_6_" cx="419.5592" cy="167.7231" r="212.2342" gradientUnits="userSpaceOnUse">
		<stop  offset="0" style="stop-color:#00AEEF"/>
		<stop  offset="1" style="stop-color:#1C75BC"/>
	</radialGradient>
	<circle class="st5" cx="391" cy="248.4" r="5.4"/>
	<radialGradient id="SVGID_7_" cx="419.5592" cy="167.7231" r="212.2342" gradientUnits="userSpaceOnUse">
		<stop  offset="0" style="stop-color:#00AEEF"/>
		<stop  offset="1" style="stop-color:#1C75BC"/>
	</radialGradient>
	<circle class="st6" cx="391" cy="273.4" r="9.4"/>
	<radialGradient id="SVGID_8_" cx="419.5592" cy="167.7231" r="212.2342" gradientUnits="userSpaceOnUse">
		<stop  offset="0" style="stop-color:#00AEEF"/>
		<stop  offset="1" style="stop-color:#1C75BC"/>
	</radialGradient>
	<circle class="st7" cx="377.2" cy="323.3" r="2.5"/>
	<radialGradient id="SVGID_9_" cx="419.5592" cy="167.7231" r="212.2342" gradientUnits="userSpaceOnUse">
		<stop  offset="0" style="stop-color:#00AEEF"/>
		<stop  offset="1" style="stop-color:#1C75BC"/>
	</radialGradient>
	<circle class="st8" cx="416.5" cy="148.4" r="9.4"/>
	<radialGradient id="SVGID_10_" cx="419.5592" cy="167.7231" r="212.2342" gradientUnits="userSpaceOnUse">
		<stop  offset="0" style="stop-color:#00AEEF"/>
		<stop  offset="1" style="stop-color:#1C75BC"/>
	</radialGradient>
	<circle class="st9" cx="416.5" cy="173.4" r="9.4"/>
	<radialGradient id="SVGID_11_" cx="419.5592" cy="167.7231" r="212.2342" gradientUnits="userSpaceOnUse">
		<stop  offset="0" style="stop-color:#00AEEF"/>
		<stop  offset="1" style="stop-color:#1C75BC"/>
	</radialGradient>
	<circle class="st10" cx="416.5" cy="198.4" r="13.4"/>
	<radialGradient id="SVGID_12_" cx="419.5592" cy="167.7231" r="212.2342" gradientUnits="userSpaceOnUse">
		<stop  offset="0" style="stop-color:#00AEEF"/>
		<stop  offset="1" style="stop-color:#1C75BC"/>
	</radialGradient>
	<circle class="st11" cx="416.5" cy="223.4" r="11.4"/>
	<radialGradient id="SVGID_13_" cx="419.5592" cy="167.7231" r="212.2342" gradientUnits="userSpaceOnUse">
		<stop  offset="0" style="stop-color:#00AEEF"/>
		<stop  offset="1" style="stop-color:#1C75BC"/>
	</radialGradient>
	<circle class="st12" cx="416.5" cy="248.4" r="9.4"/>
	<radialGradient id="SVGID_14_" cx="419.5592" cy="167.7231" r="212.2342" gradientUnits="userSpaceOnUse">
		<stop  offset="0" style="stop-color:#00AEEF"/>
		<stop  offset="1" style="stop-color:#1C75BC"/>
	</radialGradient>
	<circle class="st13" cx="416.5" cy="273.4" r="13.4"/>
	<radialGradient id="SVGID_15_" cx="419.5592" cy="167.7231" r="212.2342" gradientUnits="userSpaceOnUse">
		<stop  offset="0" style="stop-color:#00AEEF"/>
		<stop  offset="1" style="stop-color:#1C75BC"/>
	</radialGradient>
	<circle class="st14" cx="416.5" cy="298.4" r="9.4"/>
	<radialGradient id="SVGID_16_" cx="419.5592" cy="167.7231" r="212.2342" gradientUnits="userSpaceOnUse">
		<stop  offset="0" style="stop-color:#00AEEF"/>
		<stop  offset="1" style="stop-color:#1C75BC"/>
	</radialGradient>
	<path class="st15" d="M425.8,321.5c1.3,6.6-4.4,12.3-11.1,11.1c-3.7-0.7-6.7-3.7-7.4-7.4c-1.3-6.6,4.4-12.3,11.1-11.1
		C422.1,314.8,425.1,317.8,425.8,321.5z"/>
	<radialGradient id="SVGID_17_" cx="419.5592" cy="167.7231" r="212.2342" gradientUnits="userSpaceOnUse">
		<stop  offset="0" style="stop-color:#00AEEF"/>
		<stop  offset="1" style="stop-color:#1C75BC"/>
	</radialGradient>
	<path class="st16" d="M399.1,319.5c0.7,3.8-2.6,7.1-6.4,6.4c-2.1-0.4-3.9-2.1-4.3-4.3c-0.7-3.8,2.6-7.1,6.4-6.4
		C396.9,315.7,398.7,317.4,399.1,319.5z"/>
	<radialGradient id="SVGID_18_" cx="419.5592" cy="167.7231" r="212.2342" gradientUnits="userSpaceOnUse">
		<stop  offset="0" style="stop-color:#00AEEF"/>
		<stop  offset="1" style="stop-color:#1C75BC"/>
	</radialGradient>
	<circle class="st17" cx="442.1" cy="173.4" r="11.4"/>
	<radialGradient id="SVGID_19_" cx="419.5592" cy="167.7231" r="212.2342" gradientUnits="userSpaceOnUse">
		<stop  offset="0" style="stop-color:#00AEEF"/>
		<stop  offset="1" style="stop-color:#1C75BC"/>
	</radialGradient>
	<circle class="st18" cx="442.1" cy="223.4" r="13.4"/>
	<radialGradient id="SVGID_20_" cx="419.5592" cy="167.7231" r="212.2342" gradientUnits="userSpaceOnUse">
		<stop  offset="0" style="stop-color:#00AEEF"/>
		<stop  offset="1" style="stop-color:#1C75BC"/>
	</radialGradient>
	<circle class="st19" cx="442.1" cy="248.4" r="11.4"/>
	<radialGradient id="SVGID_21_" cx="419.5592" cy="167.7231" r="212.2342" gradientUnits="userSpaceOnUse">
		<stop  offset="0" style="stop-color:#00AEEF"/>
		<stop  offset="1" style="stop-color:#1C75BC"/>
	</radialGradient>
	<circle class="st20" cx="442.1" cy="298.4" r="11.4"/>
	<radialGradient id="SVGID_22_" cx="419.5592" cy="167.7231" r="212.2342" gradientUnits="userSpaceOnUse">
		<stop  offset="0" style="stop-color:#00AEEF"/>
		<stop  offset="1" style="stop-color:#1C75BC"/>
	</radialGradient>
	<circle class="st21" cx="442.1" cy="323.3" r="13.4"/>
	<radialGradient id="SVGID_23_" cx="419.5592" cy="167.7231" r="212.2342" gradientUnits="userSpaceOnUse">
		<stop  offset="0" style="stop-color:#00AEEF"/>
		<stop  offset="1" style="stop-color:#1C75BC"/>
	</radialGradient>
	<circle class="st22" cx="467.7" cy="148.4" r="13.4"/>
	<radialGradient id="SVGID_24_" cx="401.1161" cy="164.8626" r="180.8411" gradientUnits="userSpaceOnUse">
		<stop  offset="0" style="stop-color:#00AEEF"/>
		<stop  offset="1" style="stop-color:#1C75BC"/>
	</radialGradient>
	<circle class="st23" cx="442.1" cy="148.4" r="11.4"/>
	<radialGradient id="SVGID_25_" cx="419.5592" cy="167.7231" r="212.2342" gradientUnits="userSpaceOnUse">
		<stop  offset="0" style="stop-color:#00AEEF"/>
		<stop  offset="1" style="stop-color:#1C75BC"/>
	</radialGradient>
	<circle class="st24" cx="467.7" cy="173.4" r="13.4"/>
	<radialGradient id="SVGID_26_" cx="419.5592" cy="167.7231" r="212.2342" gradientUnits="userSpaceOnUse">
		<stop  offset="0" style="stop-color:#00AEEF"/>
		<stop  offset="1" style="stop-color:#1C75BC"/>
	</radialGradient>
	<circle class="st25" cx="467.7" cy="223.4" r="13.4"/>
	<radialGradient id="SVGID_27_" cx="419.5592" cy="167.7231" r="212.2342" gradientUnits="userSpaceOnUse">
		<stop  offset="0" style="stop-color:#00AEEF"/>
		<stop  offset="1" style="stop-color:#1C75BC"/>
	</radialGradient>
	<circle class="st26" cx="467.7" cy="248.4" r="13.4"/>
	<radialGradient id="SVGID_28_" cx="419.5592" cy="167.7231" r="212.2342" gradientUnits="userSpaceOnUse">
		<stop  offset="0" style="stop-color:#00AEEF"/>
		<stop  offset="1" style="stop-color:#1C75BC"/>
	</radialGradient>
	<circle class="st27" cx="467.7" cy="298.4" r="13.4"/>
	<radialGradient id="SVGID_29_" cx="419.5592" cy="167.7231" r="212.2342" gradientUnits="userSpaceOnUse">
		<stop  offset="0" style="stop-color:#00AEEF"/>
		<stop  offset="1" style="stop-color:#1C75BC"/>
	</radialGradient>
	<circle class="st28" cx="467.7" cy="323.3" r="13.4"/>
	
		<radialGradient id="SVGID_30_" cx="449.608" cy="179.0789" r="212.2342" gradientTransform="matrix(0.8521 0 0 0.8521 47.3498 12.2725)" gradientUnits="userSpaceOnUse">
		<stop  offset="0" style="stop-color:#00AEEF"/>
		<stop  offset="1" style="stop-color:#1C75BC"/>
	</radialGradient>
	<circle class="st29" cx="493.2" cy="148.4" r="11.4"/>
	<radialGradient id="SVGID_31_" cx="419.5592" cy="167.7231" r="212.2342" gradientUnits="userSpaceOnUse">
		<stop  offset="0" style="stop-color:#00AEEF"/>
		<stop  offset="1" style="stop-color:#1C75BC"/>
	</radialGradient>
	<circle class="st30" cx="493.2" cy="173.4" r="13.4"/>
	<radialGradient id="SVGID_32_" cx="419.5592" cy="167.7231" r="212.2342" gradientUnits="userSpaceOnUse">
		<stop  offset="0" style="stop-color:#00AEEF"/>
		<stop  offset="1" style="stop-color:#1C75BC"/>
	</radialGradient>
	<circle class="st31" cx="493.2" cy="223.4" r="13.4"/>
	<radialGradient id="SVGID_33_" cx="419.5592" cy="167.7231" r="212.2342" gradientUnits="userSpaceOnUse">
		<stop  offset="0" style="stop-color:#00AEEF"/>
		<stop  offset="1" style="stop-color:#1C75BC"/>
	</radialGradient>
	<circle class="st32" cx="493.2" cy="248.4" r="11.4"/>
	<radialGradient id="SVGID_34_" cx="419.5592" cy="167.7231" r="212.2342" gradientUnits="userSpaceOnUse">
		<stop  offset="0" style="stop-color:#00AEEF"/>
		<stop  offset="1" style="stop-color:#1C75BC"/>
	</radialGradient>
	<circle class="st33" cx="493.2" cy="298.4" r="13.4"/>
	<radialGradient id="SVGID_35_" cx="419.5592" cy="167.7231" r="212.2342" gradientUnits="userSpaceOnUse">
		<stop  offset="0" style="stop-color:#00AEEF"/>
		<stop  offset="1" style="stop-color:#1C75BC"/>
	</radialGradient>
	<circle class="st34" cx="493.2" cy="323.3" r="11.4"/>
	<radialGradient id="SVGID_36_" cx="419.5592" cy="167.7231" r="212.2342" gradientUnits="userSpaceOnUse">
		<stop  offset="0" style="stop-color:#00AEEF"/>
		<stop  offset="1" style="stop-color:#1C75BC"/>
	</radialGradient>
	<circle class="st35" cx="518.8" cy="173.4" r="13.4"/>
	<radialGradient id="SVGID_37_" cx="419.5592" cy="167.7231" r="212.2342" gradientUnits="userSpaceOnUse">
		<stop  offset="0" style="stop-color:#00AEEF"/>
		<stop  offset="1" style="stop-color:#1C75BC"/>
	</radialGradient>
	<circle class="st36" cx="518.8" cy="223.4" r="11.4"/>
	<radialGradient id="SVGID_38_" cx="419.5592" cy="167.7231" r="212.2342" gradientUnits="userSpaceOnUse">
		<stop  offset="0" style="stop-color:#00AEEF"/>
		<stop  offset="1" style="stop-color:#1C75BC"/>
	</radialGradient>
	<circle class="st37" cx="518.8" cy="248.4" r="9.4"/>
	<radialGradient id="SVGID_39_" cx="419.5592" cy="167.7231" r="212.2342" gradientUnits="userSpaceOnUse">
		<stop  offset="0" style="stop-color:#00AEEF"/>
		<stop  offset="1" style="stop-color:#1C75BC"/>
	</radialGradient>
	<circle class="st38" cx="518.8" cy="298.4" r="9.4"/>
	<radialGradient id="SVGID_40_" cx="419.5592" cy="167.7231" r="212.2342" gradientUnits="userSpaceOnUse">
		<stop  offset="0" style="stop-color:#00AEEF"/>
		<stop  offset="1" style="stop-color:#1C75BC"/>
	</radialGradient>
	<circle class="st39" cx="518.8" cy="323.3" r="11.4"/>
	<radialGradient id="SVGID_41_" cx="419.5592" cy="167.7231" r="212.2342" gradientUnits="userSpaceOnUse">
		<stop  offset="0" style="stop-color:#00AEEF"/>
		<stop  offset="1" style="stop-color:#1C75BC"/>
	</radialGradient>
	<circle class="st40" cx="544.3" cy="148.4" r="11.4"/>
	<radialGradient id="SVGID_42_" cx="419.5592" cy="167.7231" r="212.2342" gradientUnits="userSpaceOnUse">
		<stop  offset="0" style="stop-color:#00AEEF"/>
		<stop  offset="1" style="stop-color:#1C75BC"/>
	</radialGradient>
	<circle class="st41" cx="518.8" cy="128.9" r="5.4"/>
	<radialGradient id="SVGID_43_" cx="419.5592" cy="167.7231" r="212.2342" gradientUnits="userSpaceOnUse">
		<stop  offset="0" style="stop-color:#00AEEF"/>
		<stop  offset="1" style="stop-color:#1C75BC"/>
	</radialGradient>
	<circle class="st42" cx="572.6" cy="145.4" r="2.5"/>
	<radialGradient id="SVGID_44_" cx="419.5592" cy="167.7231" r="212.2342" gradientUnits="userSpaceOnUse">
		<stop  offset="0" style="stop-color:#00AEEF"/>
		<stop  offset="1" style="stop-color:#1C75BC"/>
	</radialGradient>
	<circle class="st43" cx="544.3" cy="173.4" r="9.4"/>
	<radialGradient id="SVGID_45_" cx="419.5592" cy="167.7231" r="212.2342" gradientUnits="userSpaceOnUse">
		<stop  offset="0" style="stop-color:#00AEEF"/>
		<stop  offset="1" style="stop-color:#1C75BC"/>
	</radialGradient>
	<circle class="st44" cx="544.3" cy="198.4" r="13.4"/>
	<radialGradient id="SVGID_46_" cx="419.5592" cy="167.7231" r="212.2342" gradientUnits="userSpaceOnUse">
		<stop  offset="0" style="stop-color:#00AEEF"/>
		<stop  offset="1" style="stop-color:#1C75BC"/>
	</radialGradient>
	<circle class="st45" cx="544.3" cy="223.4" r="9.4"/>
	<radialGradient id="SVGID_47_" cx="419.5592" cy="167.7231" r="212.2342" gradientUnits="userSpaceOnUse">
		<stop  offset="0" style="stop-color:#00AEEF"/>
		<stop  offset="1" style="stop-color:#1C75BC"/>
	</radialGradient>
	<circle class="st46" cx="544.3" cy="248.4" r="5.4"/>
	<radialGradient id="SVGID_48_" cx="419.5592" cy="167.7231" r="212.2342" gradientUnits="userSpaceOnUse">
		<stop  offset="0" style="stop-color:#00AEEF"/>
		<stop  offset="1" style="stop-color:#1C75BC"/>
	</radialGradient>
	<circle class="st47" cx="544.3" cy="273.4" r="13.4"/>
	<radialGradient id="SVGID_49_" cx="419.5592" cy="167.7231" r="212.2342" gradientUnits="userSpaceOnUse">
		<stop  offset="0" style="stop-color:#00AEEF"/>
		<stop  offset="1" style="stop-color:#1C75BC"/>
	</radialGradient>
	<circle class="st48" cx="544.3" cy="298.4" r="13.4"/>
	<radialGradient id="SVGID_50_" cx="419.5592" cy="167.7231" r="212.2342" gradientUnits="userSpaceOnUse">
		<stop  offset="0" style="stop-color:#00AEEF"/>
		<stop  offset="1" style="stop-color:#1C75BC"/>
	</radialGradient>
	<circle class="st49" cx="544.3" cy="323.3" r="5.4"/>
	<radialGradient id="SVGID_51_" cx="419.5592" cy="167.7231" r="212.2342" gradientUnits="userSpaceOnUse">
		<stop  offset="0" style="stop-color:#00AEEF"/>
		<stop  offset="1" style="stop-color:#1C75BC"/>
	</radialGradient>
	<circle class="st50" cx="569.9" cy="173.4" r="9.4"/>
	<radialGradient id="SVGID_52_" cx="419.5592" cy="167.7231" r="212.2342" gradientUnits="userSpaceOnUse">
		<stop  offset="0" style="stop-color:#00AEEF"/>
		<stop  offset="1" style="stop-color:#1C75BC"/>
	</radialGradient>
	<circle class="st51" cx="569.9" cy="198.4" r="5.4"/>
	<radialGradient id="SVGID_53_" cx="419.5592" cy="167.7231" r="212.2342" gradientUnits="userSpaceOnUse">
		<stop  offset="0" style="stop-color:#00AEEF"/>
		<stop  offset="1" style="stop-color:#1C75BC"/>
	</radialGradient>
	<circle class="st52" cx="569.9" cy="248.4" r="9.4"/>
	<radialGradient id="SVGID_54_" cx="419.5592" cy="167.7231" r="212.2342" gradientUnits="userSpaceOnUse">
		<stop  offset="0" style="stop-color:#00AEEF"/>
		<stop  offset="1" style="stop-color:#1C75BC"/>
	</radialGradient>
	<circle class="st53" cx="569.9" cy="273.4" r="13.4"/>
	<radialGradient id="SVGID_55_" cx="482.8514" cy="222.726" r="122.8724" gradientUnits="userSpaceOnUse">
		<stop  offset="0" style="stop-color:#00AEEF"/>
		<stop  offset="1" style="stop-color:#1C75BC"/>
	</radialGradient>
	<path class="st54" d="M575.2,297.3c0.7,3.8-2.6,7.1-6.4,6.4c-2.1-0.4-3.9-2.1-4.3-4.3c-0.7-3.8,2.6-7.1,6.4-6.4
		C573.1,293.4,574.8,295.2,575.2,297.3z"/>
	<radialGradient id="SVGID_56_" cx="419.5592" cy="167.7231" r="212.2342" gradientUnits="userSpaceOnUse">
		<stop  offset="0" style="stop-color:#00AEEF"/>
		<stop  offset="1" style="stop-color:#1C75BC"/>
	</radialGradient>
	<path class="st55" d="M572.3,322.9c0.3,1.7-1.2,3.2-2.9,2.9c-1-0.2-1.8-1-1.9-1.9c-0.3-1.7,1.2-3.2,2.9-2.9
		C571.3,321.1,572.1,321.9,572.3,322.9z"/>
</g>
<g>
	<g>
		<polygon class="st56" points="209.2,264.1 94,264.1 94,261.2 206.2,261.2 206.2,222.8 229.8,222.8 229.8,235.3 310.3,235.3 
			310.3,210.3 370.9,210.3 370.9,213.2 313.3,213.2 313.3,238.2 226.9,238.2 226.9,225.7 209.2,225.7 		"/>
	</g>
	<circle class="st56" cx="94" cy="262.7" r="4.7"/>
</g>
<g>
	<g>
		<polygon class="st57" points="263.1,274.8 167.1,274.8 167.1,240.4 127.2,240.4 127.2,237.5 170,237.5 170,271.9 260.1,271.9 
			260.1,212.5 294.1,212.5 294.1,246.9 370.9,246.9 370.9,249.8 291.1,249.8 291.1,215.4 263.1,215.4 		"/>
	</g>
	<circle class="st57" cx="127.2" cy="239" r="4.7"/>
</g>
<g>
	<g>
		<polygon class="st57" points="235.7,290.4 127.2,290.4 127.2,287.5 232.8,287.5 232.8,260.3 322.9,260.3 322.9,281.3 370.9,281.3 
			370.9,284.2 319.9,284.2 319.9,263.2 235.7,263.2 		"/>
	</g>
	<circle class="st57" cx="127.2" cy="288.9" r="4.7"/>
</g>
<g>
	<g>
		<g>
			<polygon class="st56" points="790.9,274.8 694.9,274.8 694.9,215.4 666.9,215.4 666.9,249.8 593.1,249.8 593.1,246.9 
				663.9,246.9 663.9,212.5 697.9,212.5 697.9,271.9 788,271.9 788,237.5 830.8,237.5 830.8,240.4 790.9,240.4 			"/>
		</g>
		<circle class="st56" cx="830.8" cy="239" r="4.7"/>
	</g>
	<g>
		<g>
			<polygon class="st57" points="864,264.1 748.8,264.1 748.8,225.7 731.1,225.7 731.1,238.2 644.7,238.2 644.7,213.2 581.2,213.2 
				581.2,210.3 647.7,210.3 647.7,235.3 728.2,235.3 728.2,222.8 751.8,222.8 751.8,261.2 864,261.2 			"/>
		</g>
		<circle class="st57" cx="864" cy="262.7" r="4.7"/>
	</g>
	<g>
		<g>
			<polygon class="st57" points="830.8,290.4 722.3,290.4 722.3,263.2 638.1,263.2 638.1,284.2 593.1,284.2 593.1,281.3 
				635.1,281.3 635.1,260.3 725.2,260.3 725.2,287.5 830.8,287.5 			"/>
		</g>
		<circle class="st57" cx="830.8" cy="288.9" r="4.7"/>
	</g>
</g>
<g>
	<path class="st58" d="M133.6,452.2c0,8.7-3,16.6-8.9,23.6c-5.9,6.8-13.2,10.4-21.9,11c-11.3,0.6-24.4,1.1-39.7,1.1H-0.8v-0.6H-1
		V365.8h0.2l73.9-0.2c5.1,0,14.6,0.2,28.9,0.4c8.1,0.2,15.1,3.2,20.8,8.9c5.7,5.7,8.7,12.7,8.7,20.6c0,10.4-4.7,18.5-14.2,24.6
		c10.8,7,16.3,17.2,16.3,30.6V452.2z M100.3,376.7l-91.1-0.2V414l56.9-0.2C70.3,414,72,414,71,414h17.6c8.3-0.2,12.7-0.2,13.4-0.4
		c11.9-1.3,17.8-7.4,17.8-18.3C119.8,384.3,111.3,376.7,100.3,376.7z M113,430.4c-4-3.2-8.5-4.7-13.8-4.7l-90-0.2V476h54.3
		c17.8,0,29.7,0,35.7-0.2c10.4-0.2,20.6-8.1,22.5-18.3c0.4-2.1,0.6-4.2,0.6-6.6C122.3,442,119.2,435.3,113,430.4z"/>
	<path class="st58" d="M281.6,487.1h-14.4l-47.6-47.6h-61.4v47.6H148V367.5h0.2v-0.2l86.2-0.2c4.5,0,9.3,0.2,14.6,0.4
		c10.8,0.6,19.3,5.7,25.5,15.5c3.6,5.7,5.5,12.3,5.5,20.2c0,9.3-2.8,17.4-8.5,24.2c-5.9,7.2-13.4,11-22.5,11.7l-15.1,0.6
		L281.6,487.1z M259.5,382.8c-4-3.2-8.7-4.9-13.8-4.9h-5.9c-3.4,0-8.5,0-15.5,0.2c-7,0.2-12.1,0.2-15.5,0.2h-50.5V428h64.5
		c-0.8,0-0.4,0,1.5,0c1.9,0.2,4,0.2,6.8,0.2h14.6c6.6,0,12.1-2.5,16.6-7.4c4.5-4.9,6.6-10.8,6.6-17.6
		C268.8,394.5,265.6,387.7,259.5,382.8z"/>
	<path class="st58" d="M308.1,486.8h-10.8c-0.2-5.7-0.2-25.3-0.2-58.8v-60.5h11V486.8z"/>
	<path class="st58" d="M463.3,486.8h-11v-38.2H340.8v38.2H330l-0.2-57.5v-1.9c0-16.1,0-24.8,0.2-26.1c1.1-8.9,4-16.3,9.3-22.3
		c5.7-6.6,12.7-10,21.4-10.6c12.5-0.9,23.1-1.3,31.6-1.3c14.6,0,28.2,0.4,40.3,1.3c8.7,0.6,15.9,4,21.4,10.4
		c5.1,5.7,8.1,13.2,9.1,22.3c0.2,2.5,0.4,11.3,0.4,25.9v0.4C463.7,460.7,463.5,480.7,463.3,486.8z M452.3,402.8
		c0-12.9-10.2-23.8-23.1-24c-7-0.2-19.3-0.2-36.9-0.2h-1.7c-10.4,0-19.3,0-26.5,0.2c-12.9,0.2-23.1,11-23.1,24v34.8h111.5V402.8z"/>
	<path class="st58" d="M612.3,487.1h-14.4l-47.6-47.6H489v47.6h-10.2V367.5h0.2v-0.2l86.2-0.2c4.5,0,9.3,0.2,14.6,0.4
		c10.8,0.6,19.3,5.7,25.5,15.5c3.6,5.7,5.5,12.3,5.5,20.2c0,9.3-2.8,17.4-8.5,24.2c-5.9,7.2-13.4,11-22.5,11.7l-15.1,0.6
		L612.3,487.1z M590.3,382.8c-4-3.2-8.7-4.9-13.8-4.9h-5.9c-3.4,0-8.5,0-15.5,0.2c-7,0.2-12.1,0.2-15.5,0.2H489V428h64.5
		c-0.8,0-0.4,0,1.5,0c1.9,0.2,4,0.2,6.8,0.2h14.6c6.6,0,12.1-2.5,16.6-7.4c4.5-4.9,6.6-10.8,6.6-17.6
		C599.6,394.5,596.4,387.7,590.3,382.8z"/>
	<g>
		<path class="st56" d="M729.1,368c-4.4,0-7.9,3.5-7.9,7.9v92.8l-73.9-95.3c-2.4-3.5-6.9-5.8-11.5-5.8c-8,0-14.5,6.5-14.5,14.5v96.8
			c0,4.4,3.5,7.9,7.9,7.9s7.9-3.5,7.9-7.9V386l73.9,95.3c2.4,3.5,6.9,5.8,11.5,5.8c8,0,14.5-6.5,14.5-14.5v-96.8
			C737,371.4,733.5,368,729.1,368z"/>
		<path class="st56" d="M799.5,383.9h38.2c4.6,0,8.3-3.6,8.3-8.3c0-4.5-3.7-8.1-8.3-8.1h-38.2c-27.7,0-51.1,23.4-51.1,51.1V436
			c0,27.7,23.4,51.1,51.1,51.1h38.2c4.6,0,8.3-3.6,8.3-8.1c0-4.6-3.6-8.3-8.3-8.3h-38.2c-19.2,0-34.8-15.6-34.8-34.8v-0.5h66.2
			c4.4,0,8.1-3.7,8.1-8.3c0-4.5-3.6-8.1-8.1-8.1h-66.2v-0.5C764.7,399.5,780.3,383.9,799.5,383.9z"/>
		<path class="st56" d="M950.9,367.6h-89.4c-4.5,0-8.1,3.6-8.1,8.1c0,4.6,3.6,8.3,8.1,8.3h36.5V479c0,4.5,3.7,8.1,8.3,8.1
			c4.5,0,8.1-3.6,8.1-8.1v-95.1h36.5c4.5,0,8.1-3.7,8.1-8.3C959,371.2,955.4,367.6,950.9,367.6z"/>
	</g>
</g>
</svg>
